<?xml version="1.0" encoding="UTF-8" standalone="no"?>
<svg
   xmlns:dc="http://purl.org/dc/elements/1.1/"
   xmlns:cc="http://creativecommons.org/ns#"
   xmlns:rdf="http://www.w3.org/1999/02/22-rdf-syntax-ns#"
   xmlns:svg="http://www.w3.org/2000/svg"
   xmlns="http://www.w3.org/2000/svg"
   xmlns:sodipodi="http://sodipodi.sourceforge.net/DTD/sodipodi-0.dtd"
   xmlns:inkscape="http://www.inkscape.org/namespaces/inkscape"
   version="1.1"
   x="0px"
   y="0px"
   viewBox="0 0 64 63.236"
   enable-background="new 0 0 66 66"
   xml:space="preserve"
   id="svg12"
   sodipodi:docname="Beehive.svg"
   width="64"
   height="63.236"
   inkscape:version="0.92.4 (5da689c313, 2019-01-14)"
   inkscape:export-filename="/home/thecrazygm/GitHub/steemview/assets/Beehive.svg.png"
   inkscape:export-xdpi="777.27875"
   inkscape:export-ydpi="777.27875"><metadata
     id="metadata18"><rdf:RDF><cc:Work
         rdf:about=""><dc:format>image/svg+xml</dc:format><dc:type
           rdf:resource="http://purl.org/dc/dcmitype/StillImage" /></cc:Work></rdf:RDF></metadata><defs
     id="defs16" /><sodipodi:namedview
     pagecolor="#ffffff"
     bordercolor="#666666"
     borderopacity="1"
     objecttolerance="10"
     gridtolerance="10"
     guidetolerance="10"
     inkscape:pageopacity="0"
     inkscape:pageshadow="2"
     inkscape:window-width="1920"
     inkscape:window-height="1004"
     id="namedview14"
     showgrid="false"
     inkscape:zoom="2.8606061"
     inkscape:cx="-31.448093"
     inkscape:cy="23.367"
     inkscape:window-x="0"
     inkscape:window-y="0"
     inkscape:window-maximized="1"
     inkscape:current-layer="svg12" /><g
     id="g6"
     transform="translate(-1,-1.381)"
     inkscape:export-xdpi="96"
     inkscape:export-ydpi="96"><path
       d="M 53.545,32.251 C 53.45,29.415 51.128,27.133 48.269,27.133 h -1.291 c 0.728,-0.907 1.181,-2.041 1.181,-3.292 0,-2.918 -2.374,-5.292 -5.292,-5.292 h -1.772 c 0.728,-0.907 1.182,-2.042 1.182,-3.292 0,-2.918 -2.374,-5.292 -5.292,-5.292 h -0.942 c 0.728,-0.907 1.182,-2.042 1.182,-3.292 0,-2.918 -2.374,-5.292 -5.292,-5.292 h -9.302 c -2.918,0 -5.292,2.374 -5.292,5.292 0,1.251 0.454,2.386 1.182,3.292 h -0.942 c -2.918,0 -5.292,2.374 -5.292,5.292 0,1.25 0.454,2.385 1.182,3.292 h -1.772 c -2.918,0 -5.292,2.374 -5.292,5.292 0,1.25 0.454,2.385 1.181,3.292 H 6.293 C 3.375,27.133 1,29.508 1,32.427 1,35.346 3.375,37.72 6.293,37.72 h 1.295 c -0.727,0.907 -1.18,2.042 -1.18,3.293 0,2.914 2.37,5.284 5.284,5.284 h 1.78 c -0.727,0.907 -1.18,2.043 -1.18,3.294 0,2.919 2.37,5.293 5.284,5.293 h 0.949 c -0.728,0.907 -1.182,2.042 -1.182,3.293 0,2.919 2.375,5.293 5.293,5.293 h 9.294 c 2.294,0 4.232,-1.475 4.965,-3.519 2.987,2.882 7.041,4.666 11.509,4.666 C 57.555,64.619 65,57.174 65,48.022 65,40.667 60.185,34.422 53.545,32.251 Z M 19.339,6.673 c 0,-1.815 1.477,-3.292 3.292,-3.292 h 9.302 c 1.815,0 3.292,1.477 3.292,3.292 0,1.815 -1.477,3.292 -3.292,3.292 h -9.302 c -1.815,0 -3.292,-1.477 -3.292,-3.292 z m -5.052,8.584 c 0,-1.815 1.477,-3.292 3.292,-3.292 5.94,0 13.004,0 19.407,0 1.815,0 3.292,1.477 3.292,3.292 0,1.815 -1.477,3.292 -3.292,3.292 H 17.579 c -1.816,0 -3.292,-1.476 -3.292,-3.292 z m -5.883,8.585 c 0,-1.815 1.477,-3.292 3.292,-3.292 9.317,0 21.822,0 31.171,0 1.815,0 3.292,1.477 3.292,3.292 0,1.814 -1.474,3.289 -3.287,3.292 H 11.692 C 9.879,27.131 8.404,25.656 8.404,23.842 Z M 3,32.427 c 0,-1.816 1.478,-3.294 3.293,-3.294 13.83,0 32.767,0 41.976,0 1.574,0 2.891,1.112 3.214,2.591 -1,-0.189 -2.027,-0.298 -3.08,-0.298 -4.271,0 -8.157,1.635 -11.101,4.294 -11.58,0 -19.681,0 -31.009,0 C 4.478,35.721 3,34.243 3,32.427 Z m 5.408,8.587 c 0,-1.816 1.473,-3.293 3.284,-3.293 h 23.723 c -1.51,1.9 -2.609,4.135 -3.172,6.577 -4.777,0 -15.79,0 -20.552,0 -1.81,0 -3.283,-1.473 -3.283,-3.284 z m 5.883,8.578 c 0,-1.816 1.473,-3.294 3.284,-3.294 h 14.322 c -0.059,0.567 -0.091,1.142 -0.091,1.725 0,1.708 0.26,3.356 0.742,4.907 -0.205,-0.024 -0.411,-0.044 -0.62,-0.044 -3.875,0 -8.764,0 -14.354,0 -1.81,-0.001 -3.283,-1.478 -3.283,-3.294 z m 17.638,11.88 h -9.294 c -1.816,0 -3.293,-1.478 -3.293,-3.293 0,-1.815 1.478,-3.293 3.293,-3.293 h 9.294 c 0.56,0 1.1,0.148 1.582,0.417 0.48,0.978 1.051,1.9 1.706,2.758 0.002,0.041 0.005,0.079 0.005,0.119 0,1.815 -1.477,3.292 -3.293,3.292 z m 16.474,1.147 c -8.049,0 -14.597,-6.548 -14.597,-14.597 0,-8.048 6.548,-14.596 14.597,-14.596 8.049,0 14.597,6.548 14.597,14.596 0,8.049 -6.548,14.597 -14.597,14.597 z"
       id="path2"
       inkscape:connector-curvature="0" /><path
       d="m 58.8,48.57 c -1.243,-1.143 -4.259,-2.625 -6.581,-2.701 -0.18,-0.495 -0.401,-0.976 -0.655,-1.44 0.598,-0.597 0.935,-1.413 0.935,-2.428 0,-1.45 -0.654,-2.728 -1.65,-3.538 l 0.521,-2.211 c 0.127,-0.538 -0.207,-1.076 -0.744,-1.203 -0.537,-0.13 -1.076,0.206 -1.203,0.744 l -0.432,1.835 c -0.193,-0.03 -0.386,-0.064 -0.587,-0.064 -0.217,0 -0.425,0.034 -0.633,0.069 l -0.434,-1.84 c -0.127,-0.538 -0.668,-0.874 -1.203,-0.744 -0.538,0.126 -0.871,0.665 -0.744,1.203 l 0.529,2.245 c -0.973,0.812 -1.612,2.073 -1.612,3.504 0,1.013 0.336,1.828 0.933,2.425 -0.257,0.467 -0.478,0.949 -0.658,1.444 -2.317,0.083 -5.334,1.557 -6.576,2.7 -1.974,1.817 -2.254,5.072 -0.624,7.256 1.678,2.248 4.75,2.59 6.812,0.692 0.365,-0.336 0.847,-0.919 1.341,-1.642 0.592,0.961 1.319,1.846 2.206,2.625 0.188,0.166 0.424,0.249 0.66,0.249 0.236,0 0.471,-0.083 0.66,-0.249 0.886,-0.778 1.612,-1.665 2.205,-2.63 0.496,0.725 0.979,1.31 1.345,1.647 2.028,1.866 5.105,1.595 6.812,-0.692 1.631,-2.184 1.351,-5.439 -0.623,-7.256 z M 50.499,42 c 0,2.09 -4.191,2.09 -4.191,0 0,-1.344 0.94,-2.437 2.096,-2.437 1.155,0 2.095,1.093 2.095,2.437 z M 42.84,55.046 c -1.176,1.083 -2.875,0.896 -3.855,-0.417 -1.035,-1.387 -0.867,-3.445 0.375,-4.588 1.118,-1.028 4.031,-2.339 5.676,-2.182 0.242,0.022 0.56,0.089 0.701,0.278 0.814,1.09 -1.301,5.441 -2.897,6.909 z m 5.561,0.318 c -0.708,-0.746 -1.266,-1.583 -1.682,-2.491 1.045,-2.082 1.696,-4.493 0.622,-5.932 -0.162,-0.217 -0.403,-0.459 -0.751,-0.662 0.127,-0.313 0.277,-0.616 0.443,-0.915 0.931,0.217 1.811,0.217 2.739,0.001 0.165,0.299 0.315,0.602 0.442,0.916 -0.346,0.202 -0.586,0.444 -0.747,0.66 -1.073,1.438 -0.425,3.845 0.618,5.925 -0.42,0.913 -0.978,1.753 -1.684,2.498 z m 9.42,-0.735 c -0.976,1.307 -2.673,1.505 -3.855,0.417 -0.626,-0.576 -1.292,-1.533 -1.844,-2.562 -0.015,-0.04 -0.038,-0.074 -0.058,-0.111 -0.901,-1.715 -1.472,-3.597 -0.996,-4.235 0.687,-0.919 4.804,0.456 6.377,1.904 1.243,1.143 1.411,3.201 0.376,4.587 z"
       id="path4"
       inkscape:connector-curvature="0" /></g></svg>